<svg width="1200" height="800" viewBox="0 0 1200 800" fill="none" xmlns="http://www.w3.org/2000/svg">
  <rect width="1200" height="800" rx="42" fill="#1D2A32"/>
  <circle cx="1072" cy="109" r="174" fill="#E95A2D" fill-opacity="0.2"/>
  <circle cx="169" cy="677" r="185" fill="#0E7F5B" fill-opacity="0.22"/>
  <rect x="104" y="171" width="992" height="446" rx="28" fill="#F4EFE6"/>
  <rect x="156" y="221" width="580" height="290" rx="24" fill="#1D2A32"/>
  <rect x="188" y="253" width="516" height="98" rx="20" fill="#E95A2D"/>
  <rect x="188" y="373" width="374" height="38" rx="19" fill="#FFD7C8"/>
  <rect x="188" y="431" width="280" height="38" rx="19" fill="#FFD7C8"/>
  <rect x="777" y="242" width="252" height="181" rx="24" fill="#FFFDF9"/>
  <rect x="810" y="278" width="185" height="22" rx="11" fill="#1D2A32"/>
  <rect x="810" y="318" width="140" height="22" rx="11" fill="#1D2A32" fill-opacity="0.75"/>
  <rect x="810" y="375" width="101" height="28" rx="14" fill="#0E7F5B"/>
  <rect x="278" y="557" width="582" height="52" rx="26" fill="#1D2A32"/>
  <path d="M354 641C354 609.52 379.52 584 411 584H787C818.48 584 844 609.52 844 641V653H354V641Z" fill="#E95A2D"/>
</svg>
